<?xml version="1.0" encoding="UTF-8"?>
<svg id="Layer_1" data-name="Layer 1" xmlns="http://www.w3.org/2000/svg" viewBox="0 0 117.36 117.36">
  <defs>
    <style>
      .cls-1 {
        fill: #fff;
        stroke-width: 0px;
      }
    </style>
  </defs>
  <path class="cls-1" d="M94.57,36.6l-13.46-7.57-6.48-3.64-14.67-8.25c-10.27-5.78-19.35-2.71-25.31.86-3.98,2.36-7.39,5.64-10.23,9.34l-12.38,16.25c-4.37,5.76-5.52,13.66-2.05,19.99.35.63.74,1.29,1.2,1.92,2.31,3.3,5.33,4.84,8.19,5.53,4.22.96,8.66-.11,12.34-2.42l6.85-4.37c2.52-1.61,5.76-1.69,8.39-.21l14.26,8.02c2.67,1.5,4.25,4.28,4.22,7.3l-.18,8.12c-.1,4.32,1.29,8.67,4.35,11.8,2.03,2.06,4.92,3.85,8.98,4.13.78.06,1.54.05,2.26.03,7.21-.33,13.37-5.41,16.02-12.15l7.45-19.01c1.69-4.35,2.71-8.97,2.66-13.6-.04-6.94-2.14-16.29-12.41-22.07ZM53.3,43.58l-5.78-3.25-3.02,5.38-5.64-3.17,3.03-5.38-5.9-3.31,3.31-5.91,5.91,3.32,3.17-5.64,5.64,3.17-3.17,5.64,5.77,3.25-3.32,5.9ZM73.97,51.75c1.18-2.1,3.84-2.85,5.94-1.66,2.1,1.18,2.85,3.84,1.67,5.94-1.18,2.1-3.84,2.84-5.95,1.66-2.1-1.18-2.84-3.84-1.66-5.94ZM84.69,68.31c-1.19,2.1-3.85,2.84-5.95,1.66-2.1-1.18-2.84-3.84-1.66-5.94,1.18-2.1,3.84-2.85,5.94-1.67,2.1,1.19,2.85,3.85,1.67,5.95ZM85.85,48.42c1.19-2.1,3.85-2.85,5.95-1.66,2.1,1.18,2.84,3.84,1.66,5.94-1.18,2.1-3.84,2.84-5.94,1.66-2.1-1.18-2.85-3.84-1.67-5.94ZM96.79,64.58c-1.18,2.1-3.84,2.85-5.94,1.67s-2.85-3.84-1.67-5.94c1.19-2.11,3.85-2.85,5.95-1.67,2.1,1.18,2.84,3.84,1.66,5.94Z"/>
  <path class="cls-1" d="M102.54,20.17s1.5-4.2,4.72-2.87c3.79,1.57,1.4,6.31,1.4,6.31,0,0-3.43,7.74-10.33,7.31,0,0-5.08-.77-8.3-3.05-2.76-1.95-6.85-1.73-8.94,1.16l-6.47-3.64s5.15-5.89,10.92-5.91c5.86-.02,7.72,2.41,9.84,3.58,0,0,4.57,2.92,7.15-2.89Z"/>
</svg>