<?xml version="1.0" encoding="UTF-8"?>
<svg id="Layer_1" data-name="Layer 1" xmlns="http://www.w3.org/2000/svg" viewBox="0 0 59.05 58.41">
  <defs>
    <style>
      .cls-1 {
        fill: none;
        stroke: #f6c670;
        stroke-linecap: round;
        stroke-linejoin: round;
        stroke-width: 3px;
      }
    </style>
  </defs>
  <path class="cls-1" d="M15.27,29.02l10.71,2.27-3.64,10.32c-.2.58-.58,1.08-1.08,1.43l-8.01,5.66c-1.44,1.01-3.43.56-4.29-.97l-5.93-10.56c-.87-1.54-.2-3.49,1.43-4.18l9.04-3.8c.56-.23,1.17-.29,1.76-.17Z"/>
  <path class="cls-1" d="M29.44,14.67l-2.27,10.71-10.32-3.64c-.58-.2-1.08-.58-1.43-1.08l-5.66-8.01c-1.01-1.44-.56-3.43.97-4.29l10.56-5.93c1.54-.87,3.49-.2,4.18,1.43l3.8,9.04c.23.56.29,1.17.17,1.76Z"/>
  <path class="cls-1" d="M43.78,29.49l-10.71-2.27,3.64-10.32c.2-.58.58-1.08,1.08-1.43l8.01-5.66c1.44-1.01,3.43-.56,4.29.97l5.93,10.56c.87,1.54.2,3.49-1.43,4.18l-9.04,3.8c-.56.23-1.17.29-1.76.17Z"/>
  <path class="cls-1" d="M29.29,43.74l2.27-10.71,10.32,3.64c.58.2,1.08.58,1.43,1.08l5.66,8.01c1.01,1.44.56,3.43-.97,4.29l-10.56,5.93c-1.54.87-3.49.2-4.18-1.43l-3.8-9.04c-.23-.56-.29-1.17-.17-1.76Z"/>
</svg>